<svg width="24" height="24" viewBox="0 0 24 24" fill="none"
	xmlns="http://www.w3.org/2000/svg">
	<path d="M2.61528 15.282C2.47394 15.6226 2.08328 15.7826 1.74328 15.6413C1.40328 15.4993 1.24261 15.1093 1.38394 14.7693L4.46194 6.41064C4.60328 6.07064 4.99394 5.90997 5.33328 6.0513C5.67328 6.1933 5.83394 6.5833 5.69261 6.9233L2.61528 15.282Z" fill="#66757F"/>
	<path d="M9.28203 14.7693C9.42337 15.1093 9.2627 15.4993 8.9227 15.6413C8.5827 15.7826 8.1927 15.6226 8.0507 15.282L4.97403 6.92331C4.8327 6.58331 4.99337 6.19331 5.33337 6.05131C5.67337 5.90998 6.06337 6.07065 6.20537 6.41065L9.28203 14.7693ZM15.9494 15.282C15.8074 15.6226 15.4167 15.7826 15.0767 15.6413C14.7367 15.4993 14.5767 15.1093 14.718 14.7693L17.7954 6.40998C17.9367 6.07065 18.3267 5.90998 18.6667 6.05131C19.0067 6.19331 19.168 6.58331 19.026 6.92331L15.9494 15.282Z" fill="#66757F"/>
	<path d="M22.6153 14.7693C22.7567 15.1093 22.5967 15.4993 22.2567 15.6413C21.9167 15.7826 21.526 15.6226 21.384 15.282L18.3073 6.9233C18.1653 6.5833 18.3267 6.1933 18.6667 6.0513C19.0067 5.90997 19.3967 6.07064 19.538 6.41064L22.6153 14.7693Z" fill="#66757F"/>
	<path d="M9.90467 14.6666H0.762C0.341333 14.6666 0 15.0073 0 15.4286C0 17.1113 2.388 18.476 5.33333 18.476C8.27867 18.476 10.6667 17.1113 10.6667 15.4286C10.6667 15.0073 10.3253 14.6666 9.90467 14.6666ZM16 22.6666H8C7.632 22.6666 7.33333 22.3686 7.33333 22C7.33333 20.5273 9.42267 19.3333 12 19.3333C14.5773 19.3333 16.6667 20.5273 16.6667 22C16.6667 22.3686 16.3687 22.6666 16 22.6666ZM23.238 14.6666H14.0953C13.674 14.6666 13.3333 15.0073 13.3333 15.4286C13.3333 17.1113 15.7207 18.476 18.6667 18.476C21.6127 18.476 24 17.1113 24 15.4286C24 15.0073 23.6593 14.6666 23.238 14.6666Z" fill="#FFAC33"/>
	<path d="M12.6667 2.00004C12.6667 1.63204 12.3687 1.33337 12 1.33337C11.632 1.33337 11.3334 1.63204 11.3334 2.00004V20C11.3334 20.3687 11.632 20.6667 12 20.6667C12.3687 20.6667 12.6667 20.3687 12.6667 20V2.00004Z" fill="#FFAC33"/>
	<path d="M12 4.00004C12.7363 4.00004 13.3333 3.40309 13.3333 2.66671C13.3333 1.93033 12.7363 1.33337 12 1.33337C11.2636 1.33337 10.6666 1.93033 10.6666 2.66671C10.6666 3.40309 11.2636 4.00004 12 4.00004Z" fill="#FFAC33"/>
	<path d="M5.33333 8.00004C6.06971 8.00004 6.66667 7.40309 6.66667 6.66671C6.66667 5.93033 6.06971 5.33337 5.33333 5.33337C4.59695 5.33337 4 5.93033 4 6.66671C4 7.40309 4.59695 8.00004 5.33333 8.00004Z" fill="#FFAC33"/>
	<path d="M18.6667 8.00004C19.4031 8.00004 20 7.40309 20 6.66671C20 5.93033 19.4031 5.33337 18.6667 5.33337C17.9303 5.33337 17.3334 5.93033 17.3334 6.66671C17.3334 7.40309 17.9303 8.00004 18.6667 8.00004Z" fill="#FFAC33"/>
	<path d="M18.6667 6.66667C18.6667 7.40267 18.6667 6.66667 12 6.66667C5.33337 6.66667 5.33337 7.40267 5.33337 6.66667C5.33337 5.93067 7.33337 4 12 4C16.6667 4 18.6667 5.93067 18.6667 6.66667Z" fill="#FFAC33"/>
</svg>
