<svg width="24" height="24" viewBox="0 0 24 24" fill="none"
	xmlns="http://www.w3.org/2000/svg">
	<g clip-path="url(#clip0_4_529)">
		<path d="M12 23.9333C18.6274 23.9333 24 22.3335 24 20.36C24 18.3865 18.6274 16.7866 12 16.7866C5.37258 16.7866 0 18.3865 0 20.36C0 22.3335 5.37258 23.9333 12 23.9333Z" fill="#3B88C3"/>
		<path d="M22.542 19.0254C22.542 20.1027 20.8753 20.75 12.8873 20.75C5.60396 20.75 3.81262 20.1027 3.81262 19.0254C3.81262 17.948 7.60129 17.0747 12.8873 17.0747C18.1733 17.0747 22.542 17.948 22.542 19.0254Z" fill="#88C9F9"/>
		<path d="M4.66663 18.8333C4.66663 18.1667 5.33329 15.5 12 15.5C20 15.5 22 18.1667 22 18.8333C22 19.5 22 20.1667 12.6666 20.1667C4.66663 20.1667 4.66663 19.5 4.66663 18.8333Z" fill="#F4900C"/>
		<path d="M13.7467 18.4447C13.6467 18.906 13.19 19.2 12.7287 19.0993C12.2667 18.9993 11.9733 18.5433 12.0733 18.0813L15.462 0.757995C15.562 0.295995 16.018 0.00332853 16.48 0.103329C16.9407 0.203329 17.2353 0.659329 17.134 1.12133L13.7467 18.4447Z" fill="#66757F"/>
		<path d="M16.2386 1.21801C11.1573 0.115343 6.33396 2.46668 5.4653 6.47001C5.4653 6.47001 5.2233 7.58468 5.7813 7.70601C6.33863 7.82734 7.69596 6.95401 7.69596 6.95401L21.6346 9.97934C21.6346 9.97934 22.5073 11.3367 23.0653 11.458C23.6233 11.5793 23.8646 10.464 23.8646 10.464C24.734 6.46001 21.3193 2.32068 16.2386 1.21801Z" fill="#DD2E44"/>
		<path d="M16.2387 1.21804C12.3893 0.382711 8.56466 2.95071 7.69599 6.95338C7.69599 6.95338 7.45399 8.06871 8.56932 8.31071C9.68466 8.55338 11.5993 7.80071 11.5993 7.80071L17.732 9.13204C17.732 9.13204 19.1627 10.61 20.278 10.8527C21.3933 11.094 21.6347 9.97871 21.6347 9.97871C22.5033 5.97604 20.0873 2.05338 16.2387 1.21804Z" fill="#FFE8B6"/>
		<path d="M16.2387 1.218C14.2367 0.783997 12.4674 3.798 11.5987 7.80066C11.5987 7.80066 13.0294 9.27933 14.144 9.52066L14.702 9.64266C15.8174 9.884 17.7314 9.132 17.7314 9.132C18.6007 5.12933 18.2407 1.65266 16.2387 1.218Z" fill="#DD2E44"/>
		<path d="M10.5627 18.632C10.8753 18.3473 11.7293 18.4146 12.2293 18.2306C12.7293 18.0466 13.042 17.8126 13.4587 17.98C13.8753 18.1473 14 18.398 14.396 18.432C14.792 18.466 15.0833 18.7 14.9167 18.884C14.75 19.068 13.4373 19.1346 12.5627 19.1346C11.688 19.1346 10.1767 18.984 10.5627 18.632Z" fill="#FFAC33"/>
	</g>
	<defs>
		<clipPath id="clip0_4_529">
			<rect width="24" height="24" fill="white"/>
		</clipPath>
	</defs>
</svg>
