<svg width="24" height="24" viewBox="0 0 24 24" fill="none"
	xmlns="http://www.w3.org/2000/svg">
	<g clip-path="url(#clip0_4_530)">
		<path d="M24 12C24 18.6273 18.6273 24 12 24C5.37333 24 0 18.6273 0 12C0 5.37333 5.37333 0 12 0C18.6273 0 24 5.37333 24 12Z" fill="#FFC534"/>
		<path d="M4.66731 10C4.45198 10 4.24064 9.89604 4.11198 9.70337C3.90798 9.39671 3.99064 8.98271 4.29664 8.77871C4.38531 8.72004 6.49731 7.33337 9.33331 7.33337C9.70131 7.33337 9.99998 7.63204 9.99998 8.00004C9.99998 8.36804 9.70131 8.66671 9.33331 8.66671C6.89664 8.66671 5.05464 9.87604 5.03664 9.88804C4.92264 9.96404 4.79398 10 4.66731 10ZM19.3326 10C19.2066 10 19.078 9.96404 18.9646 9.88871C18.946 9.87671 17.0853 8.66671 14.6666 8.66671C14.298 8.66671 14 8.36804 14 8.00004C14 7.63204 14.298 7.33337 14.6666 7.33337C17.5026 7.33337 19.6146 8.72004 19.7033 8.77871C20.01 8.98271 20.0926 9.39671 19.888 9.70337C19.76 9.89604 19.548 10 19.3326 10Z" fill="#664500"/>
		<path d="M18 14.7273L24 12C24 11.56 23.9727 11.1273 23.9273 10.7L18 13.394V12.6666C18 11.9306 17.4027 11.3333 16.6667 11.3333H7.33333C6.59733 11.3333 6 11.9306 6 12.6666V13.394L0.0733333 10.7C0.0273333 11.1273 0 11.56 0 12L6 14.7273V17.758L1.03133 16.8546C1.25867 17.368 1.52533 17.8593 1.82 18.3313L6 19.0913V20C6 20.736 6.59733 21.3333 7.33333 21.3333H16.6667C17.4027 21.3333 18 20.736 18 20V19.0913L22.1807 18.3306C22.4747 17.8586 22.7413 17.3673 22.9687 16.854L18 17.758V14.7273Z" fill="#F5F8FA"/>
	</g>
	<defs>
		<clipPath id="clip0_4_530">
			<rect width="24" height="24" fill="white"/>
		</clipPath>
	</defs>
</svg>
