<svg width="24" height="24" viewBox="0 0 24 24" fill="none"
	xmlns="http://www.w3.org/2000/svg">
	<g clip-path="url(#clip0_4_534)">
		<path d="M16 9.33337H8.00002C8.00002 9.33337 4.66669 13.3334 4.66669 16C4.66669 18.6667 12 23.3334 12 23.3334C12 23.3334 19.3334 18.6667 19.3334 16C19.3334 13.3334 16 9.33337 16 9.33337Z" fill="#31373D"/>
		<path d="M13.0933 0.853343C12.4927 0.384009 11.5086 0.384009 10.908 0.853343L1.09265 8.51734C0.491984 8.98668 0.491984 9.75468 1.09265 10.224L10.9073 17.8873C11.5086 18.3567 12.492 18.3567 13.0927 17.8873L22.9073 10.224C23.5086 9.75468 23.5086 8.98668 22.9073 8.51734L13.0933 0.853343Z" fill="#292F33"/>
		<path d="M13.0933 0.853343C12.4927 0.384009 11.5086 0.384009 10.908 0.853343L1.09265 8.51734C0.491984 8.98668 0.491984 9.75468 1.09265 10.224L10.9073 17.8873C11.508 18.3567 12.492 18.3567 13.0927 17.8873L22.908 10.224C23.5086 9.75468 23.5086 8.98668 22.908 8.51734L13.0933 0.853343Z" fill="#394146"/>
		<path d="M5.33333 16.6666C5.33333 16.6666 4 18 4 18.6666V22.6666C4 22.6666 4 24 5.33333 24C6.66667 24 6.66667 22.6666 6.66667 22.6666V18.6666C6.66667 18 5.33333 16.6666 5.33333 16.6666Z" fill="#FCAB40"/>
		<path d="M5.33331 19.3334C6.43788 19.3334 7.33331 18.4379 7.33331 17.3334C7.33331 16.2288 6.43788 15.3334 5.33331 15.3334C4.22874 15.3334 3.33331 16.2288 3.33331 17.3334C3.33331 18.4379 4.22874 19.3334 5.33331 19.3334Z" fill="#FDD888"/>
		<path d="M5.33399 18C4.96599 18 4.66733 17.702 4.66733 17.3334V14.6947C4.63933 14.272 4.79199 13.3374 5.54533 12.772L11.56 7.49871C11.8373 7.25538 12.2587 7.28338 12.5007 7.56071C12.7433 7.83738 12.7153 8.25871 12.4387 8.50138L6.38533 13.8067C5.98266 14.1107 5.99999 14.6547 5.99999 14.66L6.00133 17.3334C6.00133 17.702 5.70266 18 5.33399 18Z" fill="#FCAB40"/>
		<path d="M12 10.6666C13.1046 10.6666 14 9.7712 14 8.66663C14 7.56206 13.1046 6.66663 12 6.66663C10.8954 6.66663 10 7.56206 10 8.66663C10 9.7712 10.8954 10.6666 12 10.6666Z" fill="#31373D"/>
	</g>
	<defs>
		<clipPath id="clip0_4_534">
			<rect width="24" height="24" fill="white"/>
		</clipPath>
	</defs>
</svg>
