<svg width="24" height="24" viewBox="0 0 24 24" fill="none"
	xmlns="http://www.w3.org/2000/svg">
	<g clip-path="url(#clip0_13_314)">
		<path d="M24 12C24 18.6273 18.6273 24 12 24C5.37267 24 0 18.6273 0 12C0 5.37267 5.37267 0 12 0C18.6273 0 24 5.37267 24 12Z" fill="#FFCC4D"/>
		<path d="M4.66671 15.3333C6.50766 15.3333 8.00004 13.8409 8.00004 12C8.00004 10.159 6.50766 8.66663 4.66671 8.66663C2.82576 8.66663 1.33337 10.159 1.33337 12C1.33337 13.8409 2.82576 15.3333 4.66671 15.3333Z" fill="#FF7892"/>
		<path d="M19.3333 15.3333C21.1743 15.3333 22.6667 13.8409 22.6667 12C22.6667 10.159 21.1743 8.66663 19.3333 8.66663C17.4924 8.66663 16 10.159 16 12C16 13.8409 17.4924 15.3333 19.3333 15.3333Z" fill="#FF7892"/>
		<path d="M18.2233 14.4194C18.1046 14.312 17.9273 14.3054 17.8 14.4C17.774 14.4194 15.1853 16.3334 12 16.3334C8.82264 16.3334 6.22531 14.4194 6.19998 14.4C6.07264 14.3054 5.89531 14.3134 5.77664 14.4194C5.65864 14.526 5.63198 14.702 5.71398 14.838C5.79998 14.9814 7.85864 18.3334 12 18.3334C16.1413 18.3334 18.2006 14.9814 18.286 14.838C18.368 14.7014 18.342 14.526 18.2233 14.4194ZM5.33264 10C5.23264 10 5.13064 9.97737 5.03531 9.92937C4.70598 9.76471 4.57264 9.36404 4.73731 9.03471C4.77198 8.96537 5.61598 7.33337 7.99998 7.33337C10.3846 7.33337 11.228 8.96604 11.2626 9.03537C11.4273 9.36471 11.294 9.76537 10.9646 9.93004C10.6366 10.0934 10.2413 9.96271 10.074 9.63937C10.0453 9.58604 9.52064 8.66671 7.99998 8.66671C6.45531 8.66671 5.93398 9.62204 5.92931 9.63137C5.81264 9.86537 5.57731 10 5.33264 10ZM18.6673 10C18.4226 10 18.1873 9.86537 18.07 9.63137C18.0533 9.60071 17.5326 8.66671 16 8.66671C14.4673 8.66671 13.9466 9.60071 13.9253 9.64004C13.752 9.96071 13.3526 10.0867 13.0286 9.92004C12.7053 9.75204 12.574 9.36071 12.7366 9.03471C12.7713 8.96604 13.6153 7.33337 16 7.33337C18.3846 7.33337 19.2286 8.96604 19.2633 9.03537C19.428 9.36471 19.2946 9.76537 18.9653 9.93004C18.8693 9.97737 18.7673 10 18.6673 10Z" fill="#664500"/>
	</g>
	<defs>
		<clipPath id="clip0_13_314">
			<rect width="24" height="24" fill="white"/>
		</clipPath>
	</defs>
</svg>
