<svg width="24" height="24" viewBox="0 0 24 24" fill="none"
	xmlns="http://www.w3.org/2000/svg">
	<g clip-path="url(#clip0_4_723)">
		<path d="M12 22.6786C18.2592 22.6786 23.3334 17.6045 23.3334 11.3453C23.3334 5.08607 18.2592 0.0119629 12 0.0119629C5.74079 0.0119629 0.666687 5.08607 0.666687 11.3453C0.666687 17.6045 5.74079 22.6786 12 22.6786Z" fill="#FFCB4C"/>
		<path d="M9.68266 14.024C9.58599 13.9466 9.51066 13.8413 9.47466 13.7147C9.38533 13.408 9.56133 13.1027 9.86799 13.034C12.8867 12.3533 14.9193 13.9427 15.0053 14.0107C15.2613 14.2147 15.3113 14.574 15.1207 14.814C14.93 15.0527 14.5687 15.0813 14.3133 14.8787C14.24 14.8227 12.6313 13.5966 10.192 14.1466C10.0093 14.1873 9.82266 14.136 9.68266 14.024Z" fill="#65471B"/>
		<path d="M8.74601 9.22004C9.52842 9.22004 10.1627 8.42729 10.1627 7.44938C10.1627 6.47147 9.52842 5.67871 8.74601 5.67871C7.96361 5.67871 7.32935 6.47147 7.32935 7.44938C7.32935 8.42729 7.96361 9.22004 8.74601 9.22004Z" fill="#65471B"/>
		<path d="M16.25 9.92805C17.0324 9.92805 17.6666 9.1353 17.6666 8.15739C17.6666 7.17947 17.0324 6.38672 16.25 6.38672C15.4676 6.38672 14.8333 7.17947 14.8333 8.15739C14.8333 9.1353 15.4676 9.92805 16.25 9.92805Z" fill="#65471B"/>
		<path d="M11.5173 23.4327C11.5173 23.4327 12.3607 23.1587 12.47 22.5314C12.5853 21.8834 12.054 21.7534 12.054 21.7534C12.054 21.7534 12.748 21.6147 12.8353 20.836C12.9173 20.102 12.2613 19.9274 12.2613 19.9274C12.2613 19.9274 12.908 19.6607 12.9387 18.9014C12.964 18.262 12.2753 17.9494 12.2753 17.9494C12.2753 17.9494 15.634 17.1354 15.9793 17.0554C16.3233 16.9754 16.8593 16.6454 16.692 15.926C16.526 15.206 15.8893 15.1807 15.5607 15.2574C15.2313 15.334 11.0647 16.3014 9.62734 16.636L8.66801 16.8587C8.30801 16.9434 8.14468 16.7854 8.39868 16.5174C8.73734 16.16 8.95401 15.7647 9.02934 15.1087C9.10868 14.4187 8.87468 13.5667 8.74068 13.236C8.49134 12.622 8.07068 12.1367 7.58468 11.97C6.82668 11.71 6.28801 12.184 6.55668 13.0107C6.95934 14.2467 6.69534 15.2607 6.00134 15.8727C4.36868 17.3107 3.60934 18.336 4.11468 20.5214C4.66668 22.9047 7.03268 24.4387 9.41601 23.8867L11.5173 23.4327Z" fill="#F19020"/>
		<path d="M6.19733 4.234C6.088 4.17533 5.99533 4.08467 5.93666 3.968C5.79266 3.68267 5.91 3.35 6.19866 3.22667C9.04266 2.006 11.3313 3.198 11.4273 3.24934C11.716 3.40334 11.8327 3.74733 11.688 4.01867C11.544 4.28867 11.1947 4.38267 10.906 4.23067C10.824 4.18867 9.018 3.276 6.72066 4.262C6.54933 4.33467 6.356 4.31867 6.19733 4.234ZM14.2873 6.734C14.1833 6.66867 14.0967 6.572 14.046 6.45133C13.9213 6.15667 14.0613 5.83334 14.358 5.72867C17.2787 4.70467 19.4813 6.04867 19.5733 6.10667C19.85 6.28 19.9433 6.63134 19.7813 6.892C19.62 7.152 19.264 7.222 18.9873 7.05067C18.9073 7.00267 17.1693 5.97 14.8093 6.798C14.632 6.85867 14.4407 6.82867 14.2873 6.734Z" fill="#65471B"/>
	</g>
	<defs>
		<clipPath id="clip0_4_723">
			<rect width="24" height="24" fill="white"/>
		</clipPath>
	</defs>
</svg>
