<svg width="24" height="24" viewBox="0 0 24 24" fill="none"
	xmlns="http://www.w3.org/2000/svg">
	<path d="M22 12.6667C22.7913 12.6667 23.3333 13.1907 23.3333 14C23.3333 14.7153 22.678 15.3333 22 15.3333H14.6666C13.6693 15.3333 13.3333 14.7913 13.3333 14C13.3333 13.6233 13.7546 13.0053 14 12.6667L19.3333 4.66667H14.6666C13.9146 4.66667 13.3333 4.10467 13.3333 3.33333C13.3333 2.618 13.9526 2 14.6666 2H22C23.0926 2 23.3333 2.67467 23.3333 3.33333C23.3333 3.74733 22.91 4.346 22.6666 4.66667L17.3333 12.6667H22ZM11.3333 16C11.7553 16 12 16.2353 12 16.6667C12 17.0487 11.6946 17.3333 11.3333 17.3333H7.33329C6.80129 17.3333 6.66663 17.0887 6.66663 16.6667C6.66663 16.466 6.89129 16.1807 7.02196 16L9.99996 12H7.33329C6.93196 12 6.66663 11.744 6.66663 11.3333C6.66663 10.9513 6.95196 10.6667 7.33329 10.6667H11.3333C11.916 10.6667 12 10.982 12 11.3333C12 11.554 11.7746 11.918 11.6446 12.0887L8.66663 16H11.3333ZM5.33329 20.6667C5.75529 20.6667 5.99996 20.902 5.99996 21.3333C5.99996 21.7153 5.69463 22 5.33329 22H1.33329C0.801293 22 0.666626 21.7553 0.666626 21.3333C0.666626 21.1327 0.891293 20.8473 1.02196 20.6667L3.99996 16.6667H1.33329C0.931959 16.6667 0.666626 16.4107 0.666626 16C0.666626 15.6187 0.951959 15.3333 1.33329 15.3333H5.33329C5.91596 15.3333 5.99996 15.6487 5.99996 16C5.99996 16.2207 5.77463 16.5847 5.64463 16.7553L2.66663 20.6667H5.33329Z" fill="#4289C1"/>
</svg>
